<svg xmlns="http://www.w3.org/2000/svg" version="1.1" xmlns:xlink="http://www.w3.org/1999/xlink" xmlns:svgjs="http://svgjs.com/svgjs" width="512" height="512" x="0" y="0" viewBox="0 0 512 512" style="enable-background:new 0 0 512 512" xml:space="preserve" class=""><g><path fill="#5865f2" d="M433.43 93.222a422.256 422.256 0 0 0-104.216-32.324 1.582 1.582 0 0 0-1.675.792c-4.501 8.005-9.486 18.447-12.977 26.655-39.353-5.892-78.505-5.892-117.051 0-3.492-8.39-8.658-18.65-13.179-26.655a1.643 1.643 0 0 0-1.675-.792c-36.568 6.298-71.562 17.33-104.216 32.324a1.49 1.49 0 0 0-.686.589c-66.376 99.165-84.56 195.893-75.64 291.421.04.467.303.914.666 1.199 43.793 32.161 86.215 51.685 127.848 64.627a1.656 1.656 0 0 0 1.796-.589c9.848-13.449 18.627-27.63 26.154-42.543.444-.873.02-1.91-.888-2.255-13.925-5.282-27.184-11.723-39.939-19.036-1.009-.589-1.09-2.032-.161-2.723a218.562 218.562 0 0 0 7.932-6.217 1.585 1.585 0 0 1 1.655-.224c83.792 38.257 174.507 38.257 257.31 0a1.578 1.578 0 0 1 1.675.203 204.307 204.307 0 0 0 7.952 6.237c.928.691.867 2.134-.141 2.723-12.755 7.456-26.014 13.754-39.959 19.016a1.633 1.633 0 0 0-.867 2.275c7.689 14.892 16.468 29.073 26.134 42.523.404.569 1.13.813 1.796.609 41.835-12.941 84.257-32.466 128.05-64.627a1.64 1.64 0 0 0 .666-1.178c10.676-110.441-17.881-206.376-75.7-291.421a1.297 1.297 0 0 0-.664-.609zM171.094 327.065c-25.227 0-46.014-23.16-46.014-51.604 0-28.443 20.383-51.604 46.014-51.604 25.831 0 46.417 23.364 46.013 51.604 0 28.444-20.384 51.604-46.013 51.604zm170.127 0c-25.226 0-46.013-23.16-46.013-51.604 0-28.443 20.383-51.604 46.013-51.604 25.832 0 46.417 23.364 46.014 51.604 0 28.444-20.181 51.604-46.014 51.604z" data-original="#5865f2"></path></g></svg>