<svg xmlns="http://www.w3.org/2000/svg" version="1.1" xmlns:xlink="http://www.w3.org/1999/xlink" width="512" height="512" x="0" y="0" viewBox="0 0 512 512" style="enable-background:new 0 0 512 512" xml:space="preserve" class=""><g><path fill="#4086f4" d="m451 135-105-30L316 0H106C81.147 0 61 20.147 61 45v422c0 24.853 20.147 45 45 45h300c24.853 0 45-20.147 45-45z" opacity="1" data-original="#4086f4"></path><path fill="#4175df" d="M451 135v332c0 24.853-20.147 45-45 45H256V0h60l30 105z" opacity="1" data-original="#4175df"></path><path fill="#80aef8" d="M451 135H346c-16.5 0-30-13.5-30-30V0c3.9 0 7.8 1.5 10.499 4.501l120 120C449.5 127.2 451 131.1 451 135z" opacity="1" data-original="#80aef8"></path><path fill="#fff5f5" d="M346 241H166c-8.291 0-15-6.709-15-15s6.709-15 15-15h180c8.291 0 15 6.709 15 15s-6.709 15-15 15zM346 301H166c-8.291 0-15-6.709-15-15s6.709-15 15-15h180c8.291 0 15 6.709 15 15s-6.709 15-15 15zM346 361H166c-8.291 0-15-6.709-15-15s6.709-15 15-15h180c8.291 0 15 6.709 15 15s-6.709 15-15 15zM286 421H166c-8.291 0-15-6.709-15-15s6.709-15 15-15h120c8.291 0 15 6.709 15 15s-6.709 15-15 15z" opacity="1" data-original="#fff5f5"></path><path fill="#e3e7ea" d="M256 421h30c8.291 0 15-6.709 15-15s-6.709-15-15-15h-30zM256 361h90c8.291 0 15-6.709 15-15s-6.709-15-15-15h-90zM256 301h90c8.291 0 15-6.709 15-15s-6.709-15-15-15h-90zM256 241h90c8.291 0 15-6.709 15-15s-6.709-15-15-15h-90z" opacity="1" data-original="#e3e7ea"></path></g></svg>