<svg xmlns="http://www.w3.org/2000/svg" version="1.1" xmlns:xlink="http://www.w3.org/1999/xlink" xmlns:svgjs="http://svgjs.com/svgjs" width="512" height="512" x="0" y="0" viewBox="0 0 512 512" style="enable-background:new 0 0 512 512" xml:space="preserve" class=""><g><radialGradient id="a" cx="-1341.338" cy="6883.762" r=".697" gradientTransform="matrix(800 0 0 -799.999 1073169 5507508.5)" gradientUnits="userSpaceOnUse"><stop offset="0" stop-color="#09f"></stop><stop offset=".61" stop-color="#a033ff"></stop><stop offset=".935" stop-color="#ff5280"></stop><stop offset="1" stop-color="#ff7061"></stop></radialGradient><g fill-rule="evenodd" clip-rule="evenodd"><path fill="url(#a)" d="M256 0C111.787 0 0 105.636 0 248.32c0 74.633 30.587 139.125 80.398 183.67 4.182 3.743 6.706 8.986 6.877 14.597l1.394 45.537c.445 14.526 15.449 23.977 28.741 18.109l50.812-22.431a20.434 20.434 0 0 1 13.673-1.004c23.35 6.421 48.201 9.841 74.104 9.841 144.212 0 256-105.636 256-248.32S400.212 0 256 0z" data-original="url(#a)"></path><path fill="#ffffff" d="m102.273 320.94 75.2-119.306c11.962-18.98 37.577-23.706 55.525-10.245l59.81 44.858a15.359 15.359 0 0 0 18.503-.053l80.777-61.304c10.782-8.182 24.855 4.721 17.64 16.171l-75.2 119.307c-11.963 18.979-37.578 23.706-55.525 10.244l-59.812-44.859a15.36 15.36 0 0 0-18.502.054l-80.777 61.304c-10.782 8.181-24.856-4.721-17.639-16.171z" data-original="#ffffff"></path></g></g></svg>