<svg xmlns="http://www.w3.org/2000/svg" version="1.1" xmlns:xlink="http://www.w3.org/1999/xlink" xmlns:svgjs="http://svgjs.com/svgjs" width="512" height="512" x="0" y="0" viewBox="0 0 512 512" style="enable-background:new 0 0 512 512" xml:space="preserve" class=""><g><path fill="#e60023" d="M256.21 0C114.947 0 .42 114.526.42 255.79c0 108.421 67.369 201.053 162.526 238.316-2.316-20.211-4.211-51.368.842-73.474 4.632-20 29.895-127.158 29.895-127.158s-7.579-15.368-7.579-37.895c0-35.579 20.632-62.105 46.316-62.105 21.895 0 32.421 16.421 32.421 36 0 21.895-13.895 54.737-21.263 85.263-6.105 25.474 12.842 46.316 37.895 46.316 45.474 0 80.421-48 80.421-117.053 0-61.263-44-104-106.947-104-72.842 0-115.579 54.526-115.579 110.947 0 21.895 8.421 45.474 18.947 58.316 2.105 2.526 2.316 4.842 1.684 7.368-1.895 8-6.316 25.474-7.158 29.053-1.053 4.632-3.79 5.684-8.632 3.368-32-14.947-52-61.474-52-99.158 0-80.632 58.526-154.737 169.053-154.737 88.632 0 157.684 63.158 157.684 147.789 0 88.211-55.579 159.158-132.632 159.158-25.895 0-50.316-13.474-58.526-29.474 0 0-12.842 48.842-16 60.842-5.684 22.316-21.263 50.105-31.79 67.158 24 7.368 49.263 11.368 75.79 11.368 141.263 0 255.79-114.526 255.79-255.789C511.999 114.526 397.473 0 256.21 0z" data-original="#e60023" class=""></path></g></svg>
