<svg xmlns="http://www.w3.org/2000/svg" version="1.1" xmlns:xlink="http://www.w3.org/1999/xlink" xmlns:svgjs="http://svgjs.com/svgjs" width="512" height="512" x="0" y="0" viewBox="0 0 512 512" style="enable-background:new 0 0 512 512" xml:space="preserve" class=""><g><path fill="#fffc01" d="M483.738 0h-455.5C12.641.008-.004 12.66 0 28.262v455.5C.008 499.359 12.66 512.004 28.262 512h455.476c15.606.004 28.258-12.645 28.262-28.25V28.238C511.992 12.641 499.34-.004 483.738 0zm0 0" data-original="#fffc01" class=""></path><path fill="#ffffff" d="M258.898 471.54c-1.183 0-2.343-.036-3.511-.095a26.03 26.03 0 0 1-2.293.094c-27.207 0-44.668-12.34-61.559-24.285-11.66-8.238-22.668-16.02-35.629-18.176-6.324-1.05-12.629-1.574-18.703-1.574-10.973 0-19.613 1.691-25.933 2.922-3.832.758-7.145 1.398-9.66 1.398-2.633 0-5.473-.566-6.715-4.797-1.075-3.668-1.848-7.207-2.602-10.648-1.93-8.828-3.297-14.262-6.996-14.828-43.152-6.664-55.512-15.762-58.262-22.207-.383-.918-.617-1.848-.66-2.758a4.845 4.845 0 0 1 4.066-5.066c66.332-10.922 96.079-78.727 97.32-81.606.028-.074.067-.156.102-.23 4.063-8.23 4.856-15.375 2.371-21.235-4.547-10.719-19.398-15.433-29.23-18.55-2.399-.766-4.68-1.485-6.48-2.2-19.614-7.754-21.243-15.703-20.47-19.762 1.317-6.914 10.548-11.73 18.02-11.73 2.043 0 3.844.367 5.364 1.078 8.828 4.13 16.769 6.223 23.64 6.223 9.48 0 13.621-3.98 14.121-4.508-.246-4.488-.539-9.176-.847-14.02-1.973-31.355-4.43-70.332 5.5-92.574 29.738-66.676 92.796-71.86 111.418-71.86.476 0 8.164-.081 8.164-.081h1.101c18.656 0 81.86 5.187 111.617 71.906 9.922 22.25 7.465 61.258 5.489 92.59l-.082 1.371c-.278 4.355-.543 8.598-.766 12.66.477.485 4.285 4.149 12.871 4.48h.008c6.539-.25 14.039-2.335 22.277-6.187 2.41-1.133 5.098-1.37 6.914-1.37 2.801 0 5.617.542 7.965 1.519l.149.062c6.656 2.367 11.023 7.024 11.12 11.906.09 4.598-3.425 11.504-20.624 18.301-1.785.707-4.067 1.426-6.485 2.2-9.836 3.117-24.68 7.831-29.23 18.554-2.48 5.855-1.692 12.992 2.375 21.223.035.082.074.156.11.238 1.23 2.879 30.945 70.668 97.32 81.598a4.868 4.868 0 0 1 4.062 5.066 8.112 8.112 0 0 1-.68 2.773c-2.742 6.399-15.078 15.485-58.238 22.153-3.531.539-4.902 5.14-7.008 14.777-.765 3.504-1.535 6.95-2.601 10.57-.918 3.149-2.875 4.618-6.18 4.618h-.531c-2.29 0-5.535-.414-9.657-1.223-7.312-1.426-15.503-2.742-25.93-2.742-6.09 0-12.386.523-18.718 1.574-12.95 2.16-23.945 9.922-35.586 18.152-16.922 11.965-34.383 24.305-61.598 24.305" data-original="#ffffff"></path><path fill="#030303" d="M260.531 45.32c17.664 0 78.508 4.746 107.18 69.024 9.445 21.16 7.023 59.504 5.082 90.304-.316 4.891-.606 9.625-.848 14.153l-.11 1.937 1.31 1.453c.515.582 5.421 5.707 16.335 6.133l.184.008.176-.008c7.215-.277 15.344-2.512 24.183-6.648 1.29-.61 3.024-.903 4.856-.903 2.086 0 4.305.387 6.129 1.16l.277.11c4.625 1.617 7.899 4.68 7.953 7.445.028 1.575-1.148 7.2-17.55 13.68-1.61.637-3.723 1.309-6.172 2.078-10.68 3.39-26.805 8.504-32.239 21.285-3.05 7.215-2.226 15.723 2.493 25.285 1.94 4.512 32.402 73.172 100.996 84.477-.016.32-.102.68-.286 1.098-1.156 2.742-8.55 12.195-54.527 19.285-7.2 1.113-8.957 9.18-11.004 18.554-.726 3.348-1.492 6.73-2.52 10.235-.312 1.058-.367 1.125-1.507 1.125h-.543c-2.031 0-5.137-.426-8.727-1.125-6.52-1.277-15.445-2.84-26.859-2.84-6.363 0-12.926.559-19.508 1.648-14.07 2.34-25.515 10.438-37.637 18.993-16.265 11.515-33.093 23.402-58.753 23.402a62.01 62.01 0 0 1-3.31-.094l-.284.008-.293.016c-.625.058-1.262.082-1.914.082-25.664 0-42.492-11.887-58.754-23.39-12.121-8.571-23.567-16.661-37.63-19.009-6.581-1.086-13.144-1.648-19.507-1.648-11.414 0-20.344 1.738-26.867 3.015-3.586.707-6.684 1.309-8.723 1.309-1.66 0-1.691-.094-2.043-1.3-1.03-3.505-1.793-6.977-2.515-10.329-2.051-9.379-3.825-17.484-11.008-18.601-45.985-7.098-53.363-16.567-54.535-19.301a3.275 3.275 0 0 1-.278-1.121C99.82 365 130.293 296.352 132.23 291.82c4.707-9.562 5.547-18.058 2.485-25.277-5.426-12.79-21.55-17.902-32.238-21.293-2.45-.773-4.559-1.441-6.165-2.074-13.867-5.485-18.125-10.988-17.476-14.336.726-3.852 7.414-7.774 13.238-7.774 1.309 0 2.457.204 3.301.61 9.473 4.43 18.125 6.683 25.7 6.683 11.917 0 17.234-5.546 17.792-6.183l1.297-1.442-.11-1.93c-.238-4.523-.538-9.25-.847-14.136-1.941-30.813-4.355-69.125 5.082-90.293 28.559-64.043 89.102-68.98 106.977-68.98.441 0 8.214-.075 8.214-.075zm0-9.718h-1.164s-7.515.074-8.113.074c-19.344 0-84.918 5.398-115.848 74.75-10.406 23.332-7.918 62.965-5.914 94.808.238 3.75.488 7.649.7 11.418-1.602.883-4.524 1.985-9.122 1.985-6.14 0-13.398-1.93-21.574-5.766-2.168-1.008-4.672-1.523-7.43-1.523-9.57 0-21.02 6.297-22.793 15.675-1.289 6.758 1.739 16.618 23.457 25.196 1.957.781 4.313 1.523 6.805 2.304 8.973 2.852 22.535 7.157 26.223 15.829 1.902 4.496 1.14 10.277-2.262 17.175a7.365 7.365 0 0 0-.21.477c-1.196 2.773-29.903 68.219-93.641 78.71a9.735 9.735 0 0 0-8.13 10.141c.083 1.48.434 2.942 1.032 4.368 4.789 11.18 24.965 19.382 61.707 25.082 1.234 1.656 2.512 7.523 3.293 11.097.766 3.532 1.555 7.164 2.683 11.004 1.102 3.774 3.98 8.274 11.372 8.274 2.992 0 6.523-.692 10.593-1.489 6.125-1.199 14.512-2.832 25.004-2.832 5.82 0 11.852.504 17.918 1.508 11.852 1.973 21.934 9.102 33.59 17.34 16.707 11.816 35.629 25.184 64.383 25.184.789 0 1.582-.016 2.37-.082.93.046 2.145.082 3.435.082 28.761 0 47.683-13.368 64.375-25.172 11.687-8.258 21.757-15.38 33.605-17.352 6.07-1.004 12.102-1.508 17.918-1.508 10.016 0 17.93 1.266 24.992 2.649 4.434.87 7.992 1.312 10.594 1.312h.543c5.465 0 9.316-2.886 10.84-8.117 1.113-3.762 1.902-7.3 2.683-10.89.782-3.567 2.051-9.403 3.274-11.06 36.758-5.694 56.933-13.878 61.715-25.015a13.087 13.087 0 0 0 1.046-4.394 9.71 9.71 0 0 0-8.128-10.133c-63.766-10.508-92.457-75.941-93.641-78.715a6.41 6.41 0 0 0-.219-.469c-3.398-6.906-4.156-12.68-2.25-17.175 3.68-8.672 17.242-12.973 26.215-15.817 2.508-.8 4.863-1.558 6.805-2.316 15.894-6.281 23.867-13.989 23.707-22.918-.14-7.016-5.598-13.27-14.282-16.367l-.023-.008c-2.918-1.215-6.383-1.875-9.773-1.875-2.325 0-5.766.312-8.98 1.82-7.56 3.543-14.356 5.473-20.212 5.73-3.89-.175-6.43-1.156-7.879-1.956.184-3.227.39-6.555.606-10.032l.082-1.351c2.015-31.86 4.508-71.524-5.903-94.871C345.645 41 279.934 35.6 260.531 35.6" data-original="#030303"></path></g></svg>
