<svg xmlns="http://www.w3.org/2000/svg" version="1.1" xmlns:xlink="http://www.w3.org/1999/xlink" xmlns:svgjs="http://svgjs.com/svgjs" width="512" height="512" x="0" y="0" viewBox="0 0 512 512" style="enable-background:new 0 0 512 512" xml:space="preserve" class=""><g><linearGradient id="a" x1="-1980.761" x2="-1980.761" y1="6242.157" y2="6241.649" gradientTransform="matrix(1000 0 0 -1000 1981017 6242157)" gradientUnits="userSpaceOnUse"><stop offset="0" stop-color="#2aabee"></stop><stop offset="1" stop-color="#229ed9"></stop></linearGradient><g fill-rule="evenodd" clip-rule="evenodd"><circle cx="256" cy="256" r="256" fill="url(#a)" data-original="url(#a)" class=""></circle><path fill="#ffffff" d="M115.88 253.298c74.629-32.515 124.394-53.951 149.293-64.307 71.094-29.57 85.867-34.707 95.495-34.877 2.118-.037 6.853.488 9.92 2.977 4.55 3.692 4.576 11.706 4.071 17.01-3.853 40.48-20.523 138.713-29.004 184.051-3.589 19.184-10.655 25.617-17.495 26.246-14.866 1.368-26.155-9.825-40.554-19.263-22.531-14.77-35.26-23.964-57.131-38.376-25.275-16.656-8.89-25.81 5.514-40.771 3.77-3.915 69.271-63.494 70.539-68.899.159-.676.306-3.196-1.191-4.526s-3.706-.876-5.3-.514c-2.26.513-38.254 24.304-107.982 71.372-10.217 7.016-19.471 10.434-27.762 10.255-9.141-.197-26.723-5.168-39.794-9.417-16.032-5.211-28.774-7.967-27.664-16.817.578-4.611 6.926-9.325 19.045-14.144z" data-original="#ffffff"></path></g></g></svg>