<svg xmlns="http://www.w3.org/2000/svg" version="1.1" xmlns:xlink="http://www.w3.org/1999/xlink" xmlns:svgjs="http://svgjs.com/svgjs" width="512" height="512" x="0" y="0" viewBox="0 0 176 176" style="enable-background:new 0 0 512 512" xml:space="preserve" class=""><g><g data-name="Layer 2"><rect width="176" height="176" fill="#29cd47" rx="24" data-original="#29a71a" class=""></rect><g fill="#fff"><path d="M126.8 49.2a54.57 54.57 0 0 0-87.42 63.13l-5.79 28.11a2.08 2.08 0 0 0 .33 1.63 2.11 2.11 0 0 0 2.24.87l27.55-6.53A54.56 54.56 0 0 0 126.8 49.2zm-8.59 68.56a42.74 42.74 0 0 1-49.22 8l-3.84-1.9-16.89 4 .05-.21 3.5-17-1.88-3.71a42.72 42.72 0 0 1 7.86-49.59 42.73 42.73 0 0 1 60.42 0 2.28 2.28 0 0 0 .22.22 42.72 42.72 0 0 1-.22 60.19z" fill="#ffffff" data-original="#ffffff" class=""></path><path d="M116.71 105.29c-2.07 3.26-5.34 7.25-9.45 8.24-7.2 1.74-18.25.06-32-12.76l-.17-.15C63 89.41 59.86 80.08 60.62 72.68c.42-4.2 3.92-8 6.87-10.48a3.93 3.93 0 0 1 6.15 1.41l4.45 10a3.91 3.91 0 0 1-.49 4l-2.25 2.92a3.87 3.87 0 0 0-.35 4.32c1.26 2.21 4.28 5.46 7.63 8.47 3.76 3.4 7.93 6.51 10.57 7.57a3.82 3.82 0 0 0 4.19-.88l2.61-2.63a4 4 0 0 1 3.9-1l10.57 3a4 4 0 0 1 2.24 5.91z" fill="#ffffff" data-original="#ffffff" class=""></path></g></g></g></svg>